<svg id="Group_31" data-name="Group 31" xmlns="http://www.w3.org/2000/svg" width="121.419" height="123.236" viewBox="0 0 121.419 123.236">
  <g id="Frame_1" data-name="Frame 1">
    <rect id="Frame_1-2" data-name="Frame 1" width="121.419" height="123.236" rx="10" fill="#fc9100"/>
  </g>
  <g id="Icon" transform="translate(19.121 20.378)">
    <path id="Vector" d="M24.953,0H8.318A8.264,8.264,0,0,0,2.439,2.475,8.515,8.515,0,0,0,0,8.442V25.326A5.677,5.677,0,0,0,1.626,29.3a5.51,5.51,0,0,0,3.919,1.65v19.7A5.677,5.677,0,0,0,7.171,54.63a5.51,5.51,0,0,0,3.919,1.65H22.18A5.51,5.51,0,0,0,26.1,54.63a5.677,5.677,0,0,0,1.626-3.978v-19.7a5.51,5.51,0,0,0,3.919-1.65,5.677,5.677,0,0,0,1.626-3.978V8.442a8.515,8.515,0,0,0-2.439-5.967A8.264,8.264,0,0,0,24.953,0Zm2.773,25.326H22.18V50.652H11.09V25.326H5.545V8.442a2.835,2.835,0,0,1,.812-1.99,2.752,2.752,0,0,1,1.96-.824H24.953a2.752,2.752,0,0,1,1.96.824,2.835,2.835,0,0,1,.812,1.99Z" transform="translate(49.906 25.326)" fill="#fff"/>
    <path id="Vector-2" data-name="Vector" d="M0,11.256A11.377,11.377,0,0,1,1.869,5,11.128,11.128,0,0,1,6.846.857,10.971,10.971,0,0,1,18.932,3.3a11.349,11.349,0,0,1-1.681,17.319,10.957,10.957,0,0,1-14-1.4A11.354,11.354,0,0,1,0,11.256Zm5.545,0a5.688,5.688,0,0,0,.935,3.127,5.564,5.564,0,0,0,2.489,2.073,5.486,5.486,0,0,0,6.043-1.22,5.675,5.675,0,0,0-.84-8.659,5.479,5.479,0,0,0-7,.7,5.677,5.677,0,0,0-1.626,3.978Z" transform="translate(55.451 0)" fill="#fff"/>
    <path id="Vector-3" data-name="Vector" d="M38.816,16.884V8.442a8.515,8.515,0,0,0-2.439-5.967A8.264,8.264,0,0,0,30.5,0H13.863A8.264,8.264,0,0,0,7.984,2.475,8.515,8.515,0,0,0,5.545,8.442v8.442H0v5.628H44.361V16.884ZM11.09,8.442a2.835,2.835,0,0,1,.812-1.99,2.752,2.752,0,0,1,1.96-.824H30.5a2.752,2.752,0,0,1,1.96.824,2.835,2.835,0,0,1,.812,1.99v8.442H11.09Z" transform="translate(0 25.326)" fill="#fff"/>
    <path id="Vector-4" data-name="Vector" d="M0,11.256A11.377,11.377,0,0,1,1.869,5,11.128,11.128,0,0,1,6.846.857,10.971,10.971,0,0,1,18.932,3.3a11.349,11.349,0,0,1-1.681,17.319,10.957,10.957,0,0,1-14-1.4A11.354,11.354,0,0,1,0,11.256Zm5.545,0a5.688,5.688,0,0,0,.935,3.127,5.564,5.564,0,0,0,2.489,2.073,5.486,5.486,0,0,0,6.043-1.22,5.675,5.675,0,0,0-.84-8.659,5.479,5.479,0,0,0-7,.7,5.677,5.677,0,0,0-1.626,3.978Z" transform="translate(11.09 0)" fill="#fff"/>
  </g>
</svg>
