<svg id="Group_31" data-name="Group 31" xmlns="http://www.w3.org/2000/svg" width="121.419" height="123.236" viewBox="0 0 121.419 123.236">
  <g id="Frame_1" data-name="Frame 1">
    <rect id="Frame_1-2" data-name="Frame 1" width="121.419" height="123.236" rx="10" fill="#33a700"/>
  </g>
  <g id="Icon" transform="translate(24.14 24.5)">
    <path id="Vector" d="M14.611,33.849c-6.721,0-7.306-3.234-7.306-3.761H0c0,3.46,2.411,9.591,10.958,10.982v4.062h7.306V41.07c7.306-1.279,10.958-6.13,10.958-10.982,0-4.212-1.9-11.283-14.611-11.283-7.306,0-7.306-2.369-7.306-3.761s2.557-3.761,7.306-3.761,5.077,2.407,5.114,3.761h7.306a11.482,11.482,0,0,0-2.538-7,10.9,10.9,0,0,0-6.229-3.832V0H10.958V4.1C3.653,5.341,0,10.192,0,15.044c0,4.212,1.9,11.283,14.611,11.283,7.306,0,7.306,2.557,7.306,3.761S19.652,33.849,14.611,33.849Z" transform="translate(21.599 14.184)" fill="#f8f8f8"/>
    <path id="Vector-2" data-name="Vector" d="M11.054,0H0V7.479H7.369V71.051a3.768,3.768,0,0,0,1.079,2.644,3.657,3.657,0,0,0,2.605,1.1H62.637a3.657,3.657,0,0,0,2.605-1.1,3.768,3.768,0,0,0,1.079-2.644V7.479h7.369V0Zm47.9,67.311H14.738V7.479H58.953Z" fill="#f8f8f8"/>
  </g>
</svg>
