<svg id="Group_31" data-name="Group 31" xmlns="http://www.w3.org/2000/svg" width="121.419" height="123.236" viewBox="0 0 121.419 123.236">
  <g id="Frame_1" data-name="Frame 1">
    <rect id="Frame_1-2" data-name="Frame 1" width="121.419" height="123.236" rx="10" fill="#0093c9"/>
    <path id="Vector" d="M64.449,0H16.628V5.65H0v26.5C0,42.4,11.225,50.824,22.24,51.7c3.616,3.946,9.977,6.812,15.637,8.034v6.927c-5.413,1.693-15.083,5.672-15.637,10.007H59.391c-.56-4.335-11.214-8.319-16.638-10.007V59.735c5.682-1.222,12.328-4.088,15.95-8.034,11.01-.877,21.74-9.306,21.74-19.548V5.65H64.449ZM5.107,10.67H16.24V33.5A27.31,27.31,0,0,0,19.388,46.15c-8.33-2.7-14.281-9.662-14.281-17.805ZM48.715,38.516l-8.308-4.664-8.319,4.664,1.587-9.865-6.726-6.982,9.293-1.441,4.165-8.966,4.154,8.966,9.293,1.441-6.726,6.982Zm12.35,8.363a29.4,29.4,0,0,0,3.175-13.213V10.818H75.4v17.46C75.4,36.789,69.421,44.056,61.065,46.878Z" transform="translate(20.238 23.033)" fill="#f8f8f8"/>
  </g>
</svg>
